<svg width="141" height="141" viewBox="0 0 141 141" fill="none" xmlns="http://www.w3.org/2000/svg">
<rect width="141" height="141" rx="14" fill="#05C2C8"/>
<path d="M75.2394 120.69C70.0394 120.69 64.7528 118.393 59.3794 113.8L58.3394 119H39.6194L57.2994 36.32L76.5394 33.72L60.9394 106.65C63.3661 108.383 65.8361 109.25 68.3494 109.25C73.2894 109.25 77.6227 106.39 81.3494 100.67C85.1628 94.95 88.1094 87.67 90.1894 78.83C92.2694 69.99 93.3094 61.0633 93.3094 52.05C93.3094 43.5567 91.6194 37.36 88.2394 33.46C84.9461 29.4733 80.3094 27.48 74.3294 27.48C67.8294 27.48 61.9794 28.78 56.7794 31.38C51.6661 33.8933 47.6361 37.5333 44.6894 42.3C41.7427 47.0667 40.2694 52.6567 40.2694 59.07C40.2694 62.2767 40.5727 64.53 41.1794 65.83C41.7861 67.0433 42.0894 67.7367 42.0894 67.91C37.5827 67.91 34.1161 66.9567 31.6894 65.05C29.3494 63.1433 28.1794 60.0667 28.1794 55.82C28.1794 49.9267 30.3894 44.3367 34.8094 39.05C39.2294 33.7633 45.1227 29.5167 52.4894 26.31C59.9427 23.1033 67.9594 21.5 76.5394 21.5C88.4128 21.5 97.1661 25.01 102.799 32.03C108.433 39.05 111.249 48.02 111.249 58.94C111.249 68.82 109.559 78.57 106.179 88.19C102.886 97.7233 98.4661 105.523 92.9194 111.59C87.3728 117.657 81.4794 120.69 75.2394 120.69Z" fill="white"/>
</svg>
